<?xml version="1.0" encoding="UTF-8"?>
<svg xmlns="http://www.w3.org/2000/svg" version="1.1" viewBox="0 0 3000 3000">
  <defs>
    <style>
      .cls-1 {
        fill: #fff;
      }
    </style>
  </defs>
  <!-- Generator: Adobe Illustrator 28.6.0, SVG Export Plug-In . SVG Version: 1.2.0 Build 709)  -->
  <g>
    <g id="Layer_2">
      <rect x="-42" y="-46.6" width="3076.5" height="3076.5"/>
    </g>
    <g id="Layer_1">
      <path id="_1" class="cls-1" d="M2253.9,824.7c-16.6,0-33.3.6-49.6,1.8v-1.8H745.8c-23,0-45.7,1.2-68.1,3.3-340.9,34.2-607,322.1-607,671.8s302.5,675.5,675.2,675.5,366.3-80.5,489.6-209.8h529.2c123.2,129.3,297,209.8,489.3,209.8,373,0,675.5-302.5,675.5-675.5s-302.5-675.2-675.5-675.2h0Z"/>
      <polygon points="2540.7 1597 2661.8 1518 2540.7 1439 2540.7 1035 2298.6 1202 2238 1202 2177.5 1202 1935.4 1035 1935.4 1439 1814.3 1518 1935.4 1597 1874.8 1636.6 2113.1 1784.7 2109.8 1891 2238 1962.1 2366.2 1891 2362.9 1784.7 2601.2 1636.6 2540.7 1597"/>
      <path class="cls-1" d="M1235.7,2013.7h56.6l25.2,113.6h.7l25.2-113.6h56.6v158.7h-37.5v-120.2h-.7l-28.8,120.2h-33.2l-28.8-120.2h-.7v120.2h-34.6v-158.7h0Z"/>
      <path class="cls-1" d="M1430.1,2014.7h38.2l17.7,122h.7l18.7-122h43.2l18.7,122h.7l17.7-122h34.2l-25.6,158.7h-49.4l-18-107h-.7l-18,107h-52.6l-25.6-158.7h0Z"/>
      <path class="cls-1" d="M1646.1,2132.5v-9.1h37.5v10.9c0,11.3,7.9,15.4,20.6,15.4s20.5-4.1,20.5-15.9-7.9-21.5-33.9-35.8c-33.2-18.4-44-31.3-44-49.4s20.5-39.4,59.1-39.4,57.7,14.5,57.7,39.9v6.6h-37.5v-8.2c0-11.3-7.2-15.6-19.8-15.6s-19.8,4.3-19.8,15.2,8.3,19.9,34.2,34.2c33.2,18.4,43.6,31.1,43.6,50.8s-20.9,40.4-59.8,40.4-58.4-14.5-58.4-39.9h0Z"/>
      <g id="Layer_3">
        <polygon points="1060.7 1653.3 1198.8 1554.8 1075.9 1475.7 1099.8 1340.9 909.6 1401.8 944.9 1157.1 849 1175.8 769.5 1014.8 689.5 1175.5 593.8 1156.5 628.4 1401.3 438.3 1339.7 461.6 1475.7 338.8 1554.8 476.6 1652.2 446.1 1749.8 595.3 1731.7 582.9 1855 737.3 1768.2 757.7 1768.2 757.7 1942.4 779.9 1942.4 779.9 1768.3 799.6 1768.3 953.8 1855.7 941.7 1732.3 1090.9 1751 1060.7 1653.3"/>
      </g>
    </g>
  </g>
</svg>